<?xml version="1.0" encoding="UTF-8" standalone="no"?>
<!-- Created with Inkscape (http://www.inkscape.org/) -->

<svg
   xmlns:dc="http://purl.org/dc/elements/1.1/"
   xmlns:cc="http://creativecommons.org/ns#"
   xmlns:rdf="http://www.w3.org/1999/02/22-rdf-syntax-ns#"
   xmlns:svg="http://www.w3.org/2000/svg"
   xmlns="http://www.w3.org/2000/svg"
   xmlns:sodipodi="http://sodipodi.sourceforge.net/DTD/sodipodi-0.dtd"
   xmlns:inkscape="http://www.inkscape.org/namespaces/inkscape"
   version="1.1"
   id="svg64"
   width="570"
   height="570"
   viewBox="0 0 570 570"
   sodipodi:docname="cupid_wings.svg"
   inkscape:version="0.92.5 (2060ec1f9f, 2020-04-08)">
  <metadata
     id="metadata70">
    <rdf:RDF>
      <cc:Work
         rdf:about="">
        <dc:format>image/svg+xml</dc:format>
        <dc:type
           rdf:resource="http://purl.org/dc/dcmitype/StillImage" />
        <dc:title></dc:title>
      </cc:Work>
    </rdf:RDF>
  </metadata>
  <defs
     id="defs68" />
  <sodipodi:namedview
     pagecolor="#ffffff"
     bordercolor="#666666"
     borderopacity="1"
     objecttolerance="10"
     gridtolerance="10"
     guidetolerance="10"
     inkscape:pageopacity="0"
     inkscape:pageshadow="2"
     inkscape:window-width="1920"
     inkscape:window-height="1016"
     id="namedview66"
     showgrid="false"
     inkscape:zoom="1.0271656"
     inkscape:cx="-102.62349"
     inkscape:cy="335.48941"
     inkscape:window-x="0"
     inkscape:window-y="0"
     inkscape:window-maximized="1"
     inkscape:current-layer="svg64" />
  <path
     style="fill:#000000"
     d="m 163.82031,175.36328 c -0.80773,0.22423 -1.09601,1.48302 -0.93164,3.75 0.86043,11.86673 10.40482,24.58612 26.45703,35.25781 4.23893,2.81808 7.51515,5.31492 7.28125,5.54883 -0.23391,0.2339 -7.43405,-3.46179 -16.00195,-8.21094 -8.56791,-4.74914 -16.00859,-8.63476 -16.5332,-8.63476 -1.68699,0 -1.02458,2.49717 1.87109,7.05469 5.43512,8.55441 14.8083,14.83908 29.49219,19.77343 4.84074,1.62667 9.11213,3.28132 9.49219,3.67774 1.23823,1.29151 -10.11378,-0.67998 -18.3086,-3.17969 -12.63132,-3.85299 -12.5,-3.83712 -12.5,-1.53125 0,4.33719 11.11603,10.35613 21.72656,11.76367 4.00021,0.53064 6.52612,0.0826 13.79688,-2.45312 4.89505,-1.70715 9.95269,-3.10547 11.23828,-3.10547 3.72635,0 7.64799,2.54257 10.68555,6.92578 6.04643,8.72499 15.84773,15.82082 25.57617,18.51758 7.20429,1.99706 22.64481,1.71159 23.98047,-0.44336 0.76454,-1.23351 -0.17477,-1.72213 -5.28711,-2.75391 -8.34344,-1.68388 -18.16761,-6.63346 -23.14258,-11.66015 -2.24111,-2.2644 -6.43481,-8.01644 -9.32031,-12.78125 -2.8855,-4.7648 -6.59693,-9.62257 -8.2461,-10.79688 -1.64918,-1.17432 -7.50798,-3.65496 -13.02148,-5.51172 -19.81666,-6.67358 -36.94799,-18.26775 -49.61133,-33.57422 -4.55507,-5.5058 -7.34714,-8.00652 -8.69336,-7.63281 z"
     id="path4634"
     inkscape:connector-curvature="0" />
  <path
     style="fill:#000000"
     d="m 265.63867,288.83008 c 1.72561,-1.57017 3.35767,-3.25015 4.87891,-5.04688 1.52123,-1.79672 2.9322,-3.70876 4.2168,-5.74414 1.28459,-2.03538 2.44134,-4.19433 3.45703,-6.48047 1.01568,-2.28613 1.889,-4.701 2.60351,-7.25 l -11.57812,-0.4707 c -17.51652,-0.71283 -27.91087,-5.49916 -36.67188,-16.88477 -2.49456,-3.24186 -5.83453,-6.56586 -7.42187,-7.38671 -3.7504,-1.93942 -10.09058,-1.89904 -14.76758,0.0918 -18.33588,7.80495 -44.75135,11.31324 -60.75586,8.07032 -4.39924,-0.89141 -10.88815,-2.75263 -14.41992,-4.13672 -8.16153,-3.19848 -9.04102,-3.17239 -9.04102,0.27929 0,5.4344 11.0775,13.55257 23,16.85547 5.02304,1.39154 10.00826,1.7895 21.93945,1.7461 13.79273,-0.0502 15.04243,0.0805 11.72657,1.22851 -5.76726,1.99667 -19.4026,3.58373 -27.57617,3.21094 -8.41729,-0.38391 -9.70514,0.63861 -5.76758,4.57617 6.97687,6.97687 31.22986,7.83911 54.67773,1.94336 1.7261,-0.43401 2.19044,-0.30513 1.5,0.41797 -0.55,0.57602 -6.96593,2.93571 -14.25781,5.24414 -7.29189,2.30842 -13.50684,4.60039 -13.81055,5.0918 -1.11237,1.79986 5.30682,3.21489 14.56836,3.21289 8.6211,-0.002 16.57994,-1.46625 26.5,-4.875 1.1,-0.37798 0.3125,0.50846 -1.75,1.96875 -2.08186,1.474 -3.75,3.49788 -3.75,4.55078 0,4.227 8.84144,3.75888 18.90821,-1.00195 3.44937,-1.6313 6.4089,-2.9668 6.57812,-2.9668 0.16921,0 0.24126,1.44726 0.16016,3.21484 -0.26407,5.75558 5.39706,5.13991 12.81836,-1.39258 3.90367,-3.43615 4.66458,-3.80392 4.08398,-1.9746 -1.15706,3.64556 1.07571,5.39098 5.87305,4.58984 z"
     id="path4632"
     inkscape:connector-curvature="0" />
</svg>
